Coordinates
version=1
nRows=16
nColumns=22
inDegrees=yes

Units are S.I. units (second, meters, Newtons, ...)
If the header above contains a line with 'inDegrees', this indicates whether rotational values are in degrees (yes) or radians (no).

endheader
time	pelvis_tilt	pelvis_list	pelvis_rotation	pelvis_tx	pelvis_ty	pelvis_tz	hip_flexion_r	hip_adduction_r	hip_rotation_r	knee_angle_r	ankle_angle_r	subtalar_angle_r	hip_flexion_l	hip_adduction_l	hip_rotation_l	knee_angle_l	ankle_angle_l	subtalar_angle_l	lumbar_extension	lumbar_bending	lumbar_rotation
      1.50000000	      4.52025593	     -3.92956974	      3.73938581	      1.20963897	      0.94245193	     -0.05990807	     -5.21240850	      5.07895731	     -9.54891201	     -7.44521114	      8.47322051	     -0.28085401	     -3.13629067	     -3.89401677	    -11.67394541	    -14.70908255	     21.24888376	     -8.13554362	    -11.54273663	      3.93469752	     -8.43724300
      1.51000000	      4.56411937	     -3.88174514	      3.73596610	      1.20963399	      0.94256274	     -0.05993208	     -5.27371971	      5.02878602	     -9.54928776	     -7.42591316	      8.45926226	     -0.26256558	     -3.22102391	     -3.82939842	    -11.63091159	    -14.63821595	     21.17526215	     -8.17907753	    -11.61019650	      3.88970438	     -8.43437673
      1.52000000	      4.56016971	     -3.87900629	      3.73224875	      1.20955773	      0.94257764	     -0.05993289	     -5.26776497	      5.02553083	     -9.55161022	     -7.41883230	      8.45895834	     -0.26187738	     -3.21238690	     -3.82407587	    -11.62956766	    -14.63601424	     21.17537151	     -8.17987376	    -11.62823734	      3.89588211	     -8.43133410
      1.53000000	      4.55918267	     -3.86322737	      3.72538496	      1.20942743	      0.94259843	     -0.05993930	     -5.25749740	      5.00559145	     -9.56263125	     -7.42219136	      8.44452963	     -0.25516992	     -3.19202505	     -3.80387800	    -11.61076984	    -14.66009839	     21.16542509	     -8.18977535	    -11.65940335	      3.88522444	     -8.40214645
      1.54000000	      4.55282334	     -3.86032729	      3.71599822	      1.20931116	      0.94261258	     -0.05993557	     -5.24661070	      5.00104545	     -9.56828413	     -7.41325707	      8.44284855	     -0.25396416	     -3.17999472	     -3.79702322	    -11.61050776	    -14.65507678	     21.16375429	     -8.19149484	    -11.67952332	      3.89016552	     -8.40088374
      1.55000000	      4.53627744	     -3.83483112	      3.69995121	      1.20917445	      0.94261555	     -0.05993267	     -5.21045363	      4.96618351	     -9.59624795	     -7.43343337	      8.41282645	     -0.24131013	     -3.14426599	     -3.76329778	    -11.59615135	    -14.67834607	     21.13474551	     -8.21367327	    -11.69131252	      3.86445284	     -8.35966287
      1.56000000	      4.53038712	     -3.83335282	      3.69377743	      1.20909643	      0.94262705	     -0.05991592	     -5.20052389	      4.96457085	     -9.59872167	     -7.42853666	      8.41242253	     -0.23997790	     -3.13553471	     -3.75985117	    -11.59706409	    -14.67165848	     21.13308447	     -8.21576879	    -11.70399723	      3.86711731	     -8.36139864
      1.57000000	      4.50720418	     -3.81374067	      3.67877379	      1.20903637	      0.94261594	     -0.05989137	     -5.15105825	      4.93723248	     -9.57481886	     -7.47237918	      8.39557333	     -0.22178421	     -3.11106930	     -3.73224080	    -11.58333905	    -14.66661589	     21.09915003	     -8.24786155	    -11.69119411	      3.84621183	     -8.35466186
      1.58000000	      4.50682231	     -3.81187085	      3.68751462	      1.20907128	      0.94262313	     -0.05986731	     -5.15161001	      4.93860578	     -9.57038760	     -7.47454882	      8.39695300	     -0.22080813	     -3.11249356	     -3.73383696	    -11.58404794	    -14.66447686	     21.09854152	     -8.24973039	    -11.68729058	      3.84380483	     -8.35325753
      1.59000000	      4.51650659	     -3.80319177	      3.69195244	      1.20915957	      0.94264883	     -0.05982127	     -5.17784545	      4.93840828	     -9.47459172	     -7.45954447	      8.42675839	     -0.20964549	     -3.14299997	     -3.72412626	    -11.55863233	    -14.63452438	     21.08737499	     -8.28018317	    -11.68710101	      3.83239348	     -8.35867191
      1.60000000	      4.56644219	     -3.79481576	      3.70408237	      1.20929456	      0.94272987	     -0.05977452	     -5.25382637	      4.94287900	     -9.38708374	     -7.43852324	      8.43853442	     -0.21817685	     -3.22454220	     -3.71955636	    -11.54289437	    -14.59599202	     21.08241725	     -8.30279241	    -11.72822966	      3.82229643	     -8.36624151
      1.61000000	      4.61491203	     -3.78742129	      3.72183858	      1.20943886	      0.94280564	     -0.05972666	     -5.32635775	      4.94865639	     -9.31672581	     -7.42182934	      8.44799547	     -0.24051483	     -3.30210027	     -3.71779100	    -11.52505665	    -14.56243382	     21.07505294	     -8.30596094	    -11.76404683	      3.81449254	     -8.38022571
      1.62000000	      4.62116203	     -3.78410251	      3.73837763	      1.20956348	      0.94280963	     -0.05967758	     -5.33551485	      4.95157555	     -9.30735542	     -7.43542226	      8.44756329	     -0.24145595	     -3.31334473	     -3.72273155	    -11.52520702	    -14.56534751	     21.07454469	     -8.30607400	    -11.74847503	      3.80936822	     -8.38097323
      1.63000000	      4.66227156	     -3.77777888	      3.74711736	      1.20966553	      0.94286998	     -0.05960732	     -5.40661299	      4.96018825	     -9.21771200	     -7.40031280	      8.47553839	     -0.27336543	     -3.38079181	     -3.72013287	    -11.49771204	    -14.53101172	     21.06869003	     -8.29690289	    -11.78207760	      3.80375661	     -8.39839574
      1.64000000	      4.66568759	     -3.77471005	      3.75037549	      1.20972299	      0.94287109	     -0.05953289	     -5.41109587	      4.96283374	     -9.21524562	     -7.40665379	      8.47470028	     -0.27443802	     -3.38630235	     -3.72325609	    -11.49732195	    -14.53352962	     21.06791972	     -8.29685365	    -11.77434537	      3.80050380	     -8.39878162
      1.65000000	      4.66617685	     -3.77124918	      3.75010549	      1.20973274	      0.94286850	     -0.05946130	     -5.41159993	      4.96419732	     -9.21512258	     -7.40710819	      8.47475698	     -0.27458705	     -3.38631754	     -3.72408137	    -11.49700101	    -14.53368541	     21.06780354	     -8.29681923	    -11.77357470	      3.80120048	     -8.39875194
